<svg width="512" height="512" viewBox="0 0 512 512" fill="none" xmlns="http://www.w3.org/2000/svg">
  <path d="M256 128C300.183 128 336 163.817 336 208V304C336 348.183 300.183 384 256 384C211.817 384 176 348.183 176 304V208C176 163.817 211.817 128 256 128Z" fill="black"/>
  <circle cx="224" cy="224" r="16" fill="white"/>
  <circle cx="288" cy="224" r="16" fill="white"/>
  <path d="M224 288C224 299.046 233.954 308 245 308H267C278.046 308 288 299.046 288 288" stroke="white" stroke-width="8" stroke-linecap="round"/>
  <rect x="128" y="96" width="256" height="32" rx="16" fill="black"/>
  <rect x="128" y="416" width="256" height="32" rx="16" fill="black"/>
</svg>
